<svg width="47" height="48" viewBox="0 0 47 48" fill="none" xmlns="http://www.w3.org/2000/svg">
<g id="Store">
<path id="Shape" fill-rule="evenodd" clip-rule="evenodd" d="M22.9556 35.5454V30.39C22.9556 29.9632 22.6096 29.6171 22.1827 29.6171H12.6913C12.2644 29.6171 11.9184 29.9632 11.9184 30.39V35.5454C11.5496 35.6167 11.2855 35.9428 11.2923 36.3183C11.2923 36.7452 11.6384 37.0912 12.0652 37.0912H22.8165C23.2434 37.0912 23.5894 36.7452 23.5894 36.3183C23.5956 35.9404 23.3275 35.6134 22.9556 35.5454ZM16.6641 35.5454H13.4642V31.163H16.6641V35.5454ZM18.2099 35.5454H21.4098V31.163H18.2099V35.5454Z" fill="#3D3D63"/>
<path id="Shape_2" d="M29.7727 36.2874C30.2978 36.2874 30.7234 35.8617 30.7234 35.3367C30.7234 34.8116 30.2978 34.386 29.7727 34.386C29.2477 34.386 28.8221 34.8116 28.8221 35.3367C28.8221 35.8617 29.2477 36.2874 29.7727 36.2874Z" fill="#3D3D63"/>
<path id="Shape_3" fill-rule="evenodd" clip-rule="evenodd" d="M39.5888 40.5848H41.7375C42.1644 40.5848 42.5104 40.9309 42.5104 41.3577C42.5104 41.7846 42.1644 42.1306 41.7375 42.1306H4.63751C4.21064 42.1306 3.86459 41.7846 3.86459 41.3577C3.86459 40.9309 4.21064 40.5848 4.63751 40.5848H6.78622V27.6771C6.46624 27.5183 6.17185 27.3125 5.91282 27.0665C5.13973 26.3251 4.70164 25.301 4.69934 24.2299C4.69133 24.1631 4.69133 24.0957 4.69934 24.0289L7.20359 14.9703C7.29983 14.6262 7.61942 14.3929 7.97651 14.4061H14.2294V12.2806H12.4131C11.9862 12.2806 11.6401 11.9345 11.6401 11.5077V6.2673C11.6401 5.84043 11.9862 5.49438 12.4131 5.49438H33.962C34.3888 5.49438 34.7349 5.84043 34.7349 6.2673V11.5077C34.7349 11.9345 34.3888 12.2806 33.962 12.2806H32.1456V14.4061H38.4294C38.7865 14.3929 39.1061 14.6262 39.2023 14.9703L41.7375 24.1681C41.7455 24.2348 41.7455 24.3023 41.7375 24.369C41.739 25.8112 40.8995 27.1218 39.5888 27.7235V40.5848ZM29.4249 12.4352V14.2515H30.5998V12.4352H29.4249ZM13.1937 7.04022H33.1891V10.7348H13.186L13.1937 7.04022ZM16.9578 14.267V12.4506L15.7752 12.4352V14.267H16.9578ZM18.5036 12.2961H27.8791V14.4216H18.4959L18.5036 12.2961ZM27.9023 40.5848H32.9108V31.1629H27.9023V40.5848ZM38.043 40.5848H34.4566V30.39C34.4566 29.9632 34.1106 29.6171 33.6837 29.6171H27.1294C26.7025 29.6171 26.3565 29.9632 26.3565 30.39V40.5848H8.33205V28.0867H8.54847C9.4842 28.0531 10.3717 27.6633 11.0295 26.9969C11.1479 26.8826 11.2565 26.7585 11.3542 26.6259C12.0603 27.5464 13.1543 28.0862 14.3144 28.0867C15.3041 28.0944 16.2548 27.7013 16.9501 26.9969C17.0644 26.8815 17.1728 26.7602 17.2747 26.6337C17.9808 27.5491 19.0712 28.0857 20.2272 28.0867C21.2168 28.0935 22.1671 27.7005 22.8629 26.9969C22.9792 26.8806 23.0876 26.7566 23.1875 26.6259C23.8937 27.5464 24.9876 28.0862 26.1478 28.0867C27.1346 28.0914 28.0818 27.6986 28.7757 26.9969C28.892 26.8806 29.0004 26.7566 29.1003 26.6259C29.8065 27.5464 30.9005 28.0862 32.0606 28.0867C33.0501 28.0935 34.0005 27.7005 34.6962 26.9969C34.8106 26.8815 34.9189 26.7602 35.0209 26.6337C35.7254 27.5509 36.8168 28.088 37.9734 28.0867H38.043V40.5848ZM35.7938 24.369C35.7938 25.574 36.7684 26.5521 37.9734 26.5564C38.547 26.5619 39.0986 26.3362 39.5038 25.9303C39.8934 25.5443 40.1226 25.0252 40.1453 24.4772L37.8266 15.9751H34.2711L35.1909 20.9914C35.2661 21.4093 34.99 21.8097 34.5726 21.8879H34.4334C34.0555 21.8941 33.7285 21.626 33.6605 21.2542L32.6867 15.9597H29.1003L29.5718 21.0377C29.5911 21.2429 29.5277 21.4473 29.3956 21.6055C29.2635 21.7637 29.0738 21.8626 28.8684 21.8802H28.7989C28.3978 21.8818 28.0621 21.5764 28.026 21.1769L27.5468 15.9519H23.9604V21.1073C23.9604 21.5342 23.6144 21.8802 23.1875 21.8802C22.7606 21.8802 22.4146 21.5342 22.4146 21.1073V15.9288H18.8205L18.3413 21.1537C18.3052 21.5532 17.9695 21.8587 17.5684 21.857H17.4988C17.2935 21.8394 17.1038 21.7405 16.9717 21.5823C16.8396 21.4241 16.7762 21.2197 16.7955 21.0146L17.267 15.9365H13.6806L12.7068 21.231C12.6388 21.6028 12.3118 21.8709 11.9338 21.8648H11.7947C11.3773 21.7865 11.1012 21.3862 11.1764 20.9682L12.0962 15.9519H8.54074L6.22199 24.3304C6.24745 24.946 6.51066 25.5279 6.95626 25.9535C7.36907 26.3548 7.92657 26.5722 8.50209 26.5564C9.66945 26.5025 10.5866 25.5376 10.5812 24.369C10.5812 23.9421 10.9273 23.5961 11.3542 23.5961C11.781 23.5961 12.1271 23.9421 12.1271 24.369C12.1271 25.5771 13.1064 26.5564 14.3144 26.5564C15.5225 26.5564 16.5018 25.5771 16.5018 24.369C16.5018 23.9421 16.8478 23.5961 17.2747 23.5961C17.7016 23.5961 18.0476 23.9421 18.0476 24.369C17.9993 25.1801 18.4046 25.9511 19.1001 26.3712C19.7956 26.7914 20.6666 26.7914 21.3621 26.3712C22.0576 25.9511 22.4629 25.1801 22.4146 24.369C22.4146 23.9421 22.7606 23.5961 23.1875 23.5961C23.6144 23.5961 23.9604 23.9421 23.9604 24.369C23.9647 25.571 24.938 26.5444 26.1401 26.5486C27.3451 26.5444 28.3197 25.5663 28.3197 24.3613C28.3197 23.9344 28.6657 23.5884 29.0926 23.5884C29.5195 23.5884 29.8655 23.9344 29.8655 24.3613C29.8655 25.5693 30.8448 26.5486 32.0529 26.5486C32.6329 26.5563 33.191 26.3275 33.5987 25.9148C34.0126 25.5067 34.2463 24.9502 34.2479 24.369C34.2479 23.9421 34.594 23.5961 35.0209 23.5961C35.4477 23.5961 35.7938 23.9421 35.7938 24.369Z" fill="#3D3D63"/>
</g>
</svg>
