<svg width="51" height="50" viewBox="0 0 51 50" fill="none" xmlns="http://www.w3.org/2000/svg">
<g id="Challenge">
<path id="Shape" fill-rule="evenodd" clip-rule="evenodd" d="M48.1 41.5667L39.95 30C43.6083 23.2109 41.9356 14.781 35.9624 9.90298C29.9892 5.02498 21.395 5.07061 15.4739 10.0118C9.55283 14.9529 7.9698 23.4002 11.7 30.15L3.64999 41.5667C3.35177 41.9824 3.31246 42.5304 3.54828 42.9845C3.7841 43.4385 4.25505 43.7215 4.76665 43.7167H46.9833C47.4949 43.7215 47.9659 43.4385 48.2017 42.9845C48.4375 42.5304 48.3982 41.9824 48.1 41.5667ZM14.7667 28.5917L17.7667 32.85L16.4333 34.7417L15.35 33.6583C15.1968 33.5064 14.9907 33.4197 14.775 33.4167C14.5593 33.4197 14.3531 33.5064 14.2 33.6583L12.0083 35.8333L10.625 34.475L14.7667 28.5917ZM29.5667 17.0083L30.25 16.0917L26.6 16.0833V18.9H30.25L29.5667 17.9833C29.3567 17.6922 29.3567 17.2994 29.5667 17.0083ZM25.775 24.3083L30.5167 31.0417L28.8917 32.6667L26.4417 30.2167C26.1197 29.9098 25.6136 29.9098 25.2917 30.2167L22.9833 32.5L21.225 30.7417L25.775 24.3083ZM22.4 34.2583L20.2667 32.125L13.25 42.0917H38.325L31.475 32.375L29.475 34.3833C29.1531 34.6902 28.6469 34.6902 28.325 34.3833L25.875 31.9333L23.55 34.2583C23.2281 34.5652 22.7219 34.5652 22.4 34.2583ZM33.875 32.9583L36.9667 28.575L41.1333 34.4583L39.7417 35.8333L37.5417 33.6583C37.3885 33.5064 37.1824 33.4197 36.9667 33.4167C36.7509 33.4197 36.5448 33.5064 36.3917 33.6583L35.2083 34.85L33.875 32.9583ZM20.4421 8.92697C14.9319 11.1161 11.3152 16.4458 11.3167 22.375C11.3147 24.5408 11.7988 26.6795 12.7333 28.6333L13.6417 27.35C13.9101 27.0061 14.3221 26.8051 14.7583 26.8051C15.1946 26.8051 15.6065 27.0061 15.875 27.35L18.7417 31.4083L24.6417 23.075C24.7255 22.9618 24.8301 22.8657 24.95 22.7917V15.2917C24.95 14.8314 25.3231 14.4583 25.7833 14.4583H31.8917C32.1927 14.4727 32.4625 14.6485 32.5972 14.918C32.732 15.1876 32.7108 15.5089 32.5417 15.7583L31.2333 17.5L32.5417 19.2167C32.7114 19.4673 32.7319 19.7903 32.5951 20.0604C32.4583 20.3305 32.1858 20.5052 31.8833 20.5167H26.6V22.775C26.7155 22.8515 26.817 22.9474 26.9 23.0583L32.8583 31.5583L35.825 27.35C36.0935 27.0061 36.5054 26.8051 36.9417 26.8051C37.3779 26.8051 37.7899 27.0061 38.0583 27.35L38.8917 28.4917C41.4 23.1192 40.3762 16.7601 36.3084 12.4464C32.2405 8.13272 25.9524 6.73788 20.4421 8.92697ZM9.68332 35.8333L11.4333 37.5833C11.7552 37.8902 12.2614 37.8902 12.5833 37.5833L14.7833 35.3917L15.4917 36.1L11.6333 41.575C11.5253 41.733 11.4516 41.9118 11.4167 42.1H5.25832L9.68332 35.8333ZM39.9417 41.575C40.0471 41.7335 40.1181 41.9123 40.15 42.1L46.5333 42.0917L42.1083 35.825L40.3583 37.575C40.0364 37.8819 39.5302 37.8819 39.2083 37.575L36.9917 35.375L36.1583 36.2083L39.9417 41.575Z" fill="#3D3D63"/>
</g>
</svg>
