<svg width="51" height="50" viewBox="0 0 51 50" fill="none" xmlns="http://www.w3.org/2000/svg">
<g id="Gifts">
<path id="Shape" fill-rule="evenodd" clip-rule="evenodd" d="M43 27.0667L44.375 27.4417C44.5973 27.4872 44.7914 27.6214 44.9125 27.8133C45.0336 28.0051 45.0712 28.2381 45.0167 28.4583L44.1833 31.4583C44.0652 31.9019 43.6107 32.1664 43.1667 32.05L42.8333 31.9583L41.0167 38.725C40.5803 40.3881 39.4931 41.8057 38 42.6583L33.1333 45.4583C31.7314 46.2721 30.0568 46.4742 28.5016 46.0172C26.9464 45.5603 25.6472 44.4844 24.9083 43.0417C24.8174 42.8659 24.7367 42.6851 24.6667 42.5H22.45V42.775C22.45 43.2352 22.0769 43.6083 21.6167 43.6083H17.1667C16.7064 43.6083 16.3333 43.2352 16.3333 42.775V42.5H10.5C9.11928 42.5 8 41.3807 8 40V22.1667H7.725C7.26476 22.1667 6.89166 21.7936 6.89166 21.3333V16.8833C6.89166 16.4231 7.26476 16.05 7.725 16.05H8V10C8 8.61928 9.11928 7.5 10.5 7.5H16.3333V7.225C16.3333 6.76476 16.7064 6.39166 17.1667 6.39166H21.65C22.1102 6.39166 22.4833 6.76476 22.4833 7.225V7.5H40.5C41.8807 7.5 43 8.61928 43 10V16.05H43.275C43.7352 16.05 44.1083 16.4231 44.1083 16.8833V21.3333C44.1083 21.7936 43.7352 22.1667 43.275 22.1667H43V27.0667ZM26.6667 20.5H42.4417V17.7167H26.6667C26.3624 18.2627 25.9447 18.7373 25.4417 19.1083C25.9447 19.4794 26.3624 19.9539 26.6667 20.5ZM22.4833 9.16666H40.5C40.9602 9.16666 41.3333 9.53976 41.3333 10V16.05H27.1667C27.1915 15.9038 27.2082 15.7564 27.2167 15.6083C27.2167 13.2151 25.2766 11.275 22.8833 11.275C22.7409 11.2802 22.599 11.2941 22.4583 11.3167L22.4833 9.16666ZM25.575 15.6083C25.575 14.1356 24.3811 12.9417 22.9083 12.9417C22.2011 12.9417 21.5228 13.2226 21.0227 13.7227C20.5226 14.2228 20.2417 14.9011 20.2417 15.6083V15.8917C21.4056 16.199 22.3134 17.11 22.6167 18.275H22.9083C24.3811 18.275 25.575 17.0811 25.575 15.6083ZM18.575 15.6083V15.8917C17.4078 16.1963 16.4963 17.1078 16.1917 18.275H15.9083C14.4356 18.275 13.2417 17.0811 13.2417 15.6083C13.2417 14.1356 14.4356 12.9417 15.9083 12.9417C17.3811 12.9417 18.575 14.1356 18.575 15.6083ZM21.075 19.1083C21.075 18.1879 20.3288 17.4417 19.4083 17.4417C18.4879 17.4417 17.7417 18.1879 17.7417 19.1083C17.7417 20.0288 18.4879 20.775 19.4083 20.775C20.3288 20.775 21.075 20.0288 21.075 19.1083ZM18 8.05833H20.7833V11.8333C20.2255 12.1347 19.7439 12.5594 19.375 13.075C19.0079 12.5768 18.5392 12.1621 18 11.8583V8.05833ZM10.5 9.16666C10.0398 9.16666 9.66666 9.53976 9.66666 10V16.05H11.5833C11.5585 15.9038 11.5418 15.7564 11.5333 15.6083C11.5379 13.2137 13.4804 11.275 15.875 11.275C16.0284 11.2802 16.1815 11.2942 16.3333 11.3167V9.16666H10.5ZM8.55833 20.5V17.7167H12.1667C12.4713 18.265 12.8923 18.7399 13.4 19.1083C12.8923 19.4767 12.4713 19.9517 12.1667 20.5H8.55833ZM10.5 40.8333H16.3333L16.3667 26.9417C16.214 26.9503 16.061 26.9503 15.9083 26.9417C13.5137 26.9417 11.5713 25.0029 11.5667 22.6083C11.5746 22.4603 11.5913 22.3128 11.6167 22.1667H9.66666V40C9.66666 40.4602 10.0398 40.8333 10.5 40.8333ZM15.875 25.275C14.9223 25.275 14.0419 24.7667 13.5656 23.9417C13.0892 23.1166 13.0892 22.1001 13.5656 21.275C14.0419 20.4499 14.9223 19.9417 15.875 19.9417H16.1583C16.463 21.1088 17.3745 22.0203 18.5417 22.325V22.6083C18.5418 24.0682 17.3681 25.2567 15.9083 25.275H15.875ZM18 41.9417H20.7833V26.3833C20.2282 26.0782 19.7472 25.6542 19.375 25.1417C19.0079 25.6399 18.5392 26.0546 18 26.3583V41.9417ZM20.2083 22.6083V22.325C21.3723 22.0177 22.2801 21.1067 22.5833 19.9417H22.875C24.3478 19.9417 25.5417 21.1356 25.5417 22.6083C25.5417 24.0811 24.3478 25.275 22.875 25.275C21.4022 25.275 20.2083 24.0811 20.2083 22.6083ZM22.4833 40.8333H24.275C24.1107 38.5005 25.3001 36.2805 27.3333 35.125L29.9917 33.55C30.0584 33.5087 30.1062 33.4429 30.125 33.3667L31.3333 28.8667L31 28.775C30.5598 28.6532 30.2996 28.1998 30.4167 27.7583L31.25 24.7583C31.3681 24.3148 31.8227 24.0502 32.2667 24.1667L41.3333 26.6667V22.1667H27.1667C27.1989 22.2985 27.2239 22.4321 27.2417 22.5667C27.2417 24.9599 25.3016 26.9 22.9083 26.9C22.7668 26.9086 22.6249 26.9086 22.4833 26.9V40.8333ZM30.4417 44.5583C29.945 44.5995 29.4449 44.5487 28.9667 44.4083C27.6762 44.05 26.6366 43.0932 26.1727 41.8368C25.7088 40.5805 25.8771 39.1777 26.625 38.0667C28.9667 39.0575 30.4845 41.3573 30.475 43.9C30.5 44.1667 30.5 44.35 30.4417 44.5583ZM37.1667 41.2167C38.2552 40.5835 39.0513 39.548 39.3833 38.3333L39.5667 37.7C37.8737 37.8343 36.566 39.2434 36.5583 40.9417C36.5636 41.1377 36.5859 41.3329 36.625 41.525L37.1667 41.2167ZM39.9917 36.0583H39.8C37.0773 36.0629 34.8713 38.269 34.8667 40.9917C34.8689 41.4869 34.9476 41.9788 35.1 42.45L32.2917 44.0667C32.2373 44.0882 32.1844 44.1133 32.1333 44.1417V43.9917C32.1513 40.996 30.5043 38.2381 27.8583 36.8333C27.8963 36.808 27.933 36.7804 27.9699 36.7526C28.0303 36.7071 28.0911 36.6612 28.1583 36.625L30.85 35C31.3051 34.7442 31.6362 34.3138 31.7667 33.8083L33 29.325L41.225 31.525L39.9917 36.0583ZM32.275 27.4083L42.7667 30.2667L43.1333 28.8333L32.6417 26.0167L32.275 27.4083Z" fill="#3D3D63"/>
</g>
</svg>
