<svg width="51" height="50" viewBox="0 0 51 50" fill="none" xmlns="http://www.w3.org/2000/svg">
<g id="Terminal">
<path id="Shape" fill-rule="evenodd" clip-rule="evenodd" d="M45.1917 25.3667H44.9167V12.4417C44.9167 11.0609 43.7974 9.94165 42.4167 9.94165H7.97499C6.59428 9.94165 5.47499 11.0609 5.47499 12.4417V33.55C5.47278 34.0664 5.67637 34.5624 6.04074 34.9283C6.40511 35.2943 6.90025 35.5 7.41666 35.5H18.7583L17.925 38.5833H16.8583C15.1895 38.5853 13.7408 39.7339 13.3583 41.3583H11.3083C10.8481 41.3583 10.475 41.7314 10.475 42.1917C10.475 42.6519 10.8481 43.025 11.3083 43.025H34.375C34.4533 44.0352 35.2951 44.8153 36.3083 44.8167H45.1917C46.2686 44.8167 47.1417 43.9436 47.1417 42.8666V27.3167C47.1417 26.2397 46.2686 25.3667 45.1917 25.3667ZM18.25 11.6083H42.4167C42.8769 11.6083 43.25 11.9814 43.25 12.4417V25.3667H36.3083C35.2314 25.3667 34.3583 26.2397 34.3583 27.3167V29.9417H18.25V11.6083ZM33.525 38.5833C33.8056 38.5863 34.085 38.6198 34.3583 38.6833L34.3917 35.5H31.6583L32.4917 38.5833H33.525ZM7.14166 12.4417C7.14166 11.9814 7.51476 11.6083 7.97499 11.6083H16.5833V29.9417H7.14166V12.4417ZM7.14166 33.55C7.14159 33.7033 7.26344 33.8288 7.41666 33.8333H34.3583V31.6083H7.14166V33.55ZM30.75 38.5833H19.625L20.4583 35.5H29.9167L30.75 38.5833ZM33.5167 40.25H16.8583C16.1102 40.2514 15.4294 40.6826 15.1083 41.3583H34.35V40.4417C34.0906 40.3147 33.8055 40.2491 33.5167 40.25ZM45.4667 42.8666C45.4667 42.9418 45.4368 43.0139 45.3837 43.067C45.3305 43.1201 45.2585 43.15 45.1833 43.15H36.3083C36.2332 43.15 36.1611 43.1201 36.108 43.067C36.0548 43.0139 36.025 42.9418 36.025 42.8666V41.6667H45.475L45.4667 42.8666ZM36.025 40.0333H45.4667L45.475 27.3167C45.475 27.1602 45.3481 27.0333 45.1917 27.0333H36.3083C36.1518 27.0333 36.025 27.1602 36.025 27.3167V40.0333Z" fill="#3D3D63"/>
<path id="Shape_2" d="M42.4167 28.15H39.0833C38.6231 28.15 38.25 28.5231 38.25 28.9834C38.25 29.4436 38.6231 29.8167 39.0833 29.8167H42.4167C42.8769 29.8167 43.25 29.4436 43.25 28.9834C43.25 28.5231 42.8769 28.15 42.4167 28.15Z" fill="#3D3D63"/>
<path id="Shape_3" d="M14.6417 14.25H12.4167C11.9564 14.25 11.5833 14.6231 11.5833 15.0833C11.5833 15.5436 11.9564 15.9167 12.4167 15.9167H14.6417C15.1019 15.9167 15.475 15.5436 15.475 15.0833C15.475 14.6231 15.1019 14.25 14.6417 14.25Z" fill="#3D3D63"/>
<circle id="Oval" cx="9.35833" cy="15.0833" r="0.833333" fill="#3D3D63"/>
<path id="Shape_4" d="M14.6417 18.6917H12.4167C11.9564 18.6917 11.5833 19.0647 11.5833 19.525C11.5833 19.9852 11.9564 20.3583 12.4167 20.3583H14.6417C15.1019 20.3583 15.475 19.9852 15.475 19.525C15.475 19.0647 15.1019 18.6917 14.6417 18.6917Z" fill="#3D3D63"/>
<path id="Shape_5" d="M14.6417 21.4667H12.4167C11.9564 21.4667 11.5833 21.8398 11.5833 22.3C11.5833 22.7602 11.9564 23.1333 12.4167 23.1333H14.6417C15.1019 23.1333 15.475 22.7602 15.475 22.3C15.475 21.8398 15.1019 21.4667 14.6417 21.4667Z" fill="#3D3D63"/>
<circle id="Oval_2" cx="9.35833" cy="19.525" r="0.833333" fill="#3D3D63"/>
<path id="Shape_6" fill-rule="evenodd" clip-rule="evenodd" d="M41.175 17.3C41.175 19.2974 39.5557 20.9167 37.5583 20.9167C35.5609 20.9167 33.9417 19.2974 33.9417 17.3C33.9417 15.3026 35.5609 13.6833 37.5583 13.6833C39.5557 13.6833 41.175 15.3026 41.175 17.3ZM39.3607 16.5641C39.0593 15.8344 38.3478 15.3584 37.5583 15.3583C36.4846 15.3583 35.6129 16.2263 35.6083 17.3C35.6049 18.0895 36.0779 18.8031 36.8063 19.1075C37.5347 19.412 38.3748 19.2472 38.9342 18.6902C39.4936 18.1331 39.662 17.2937 39.3607 16.5641Z" fill="#3D3D63"/>
<path id="Shape_7" d="M21.4417 18.75H26.4417C26.9019 18.75 27.275 18.3769 27.275 17.9166C27.275 17.4564 26.9019 17.0833 26.4417 17.0833H21.4417C20.9814 17.0833 20.6083 17.4564 20.6083 17.9166C20.6083 18.3769 20.9814 18.75 21.4417 18.75Z" fill="#3D3D63"/>
<path id="Shape_8" d="M28.85 19.8583H21.4417C20.9814 19.8583 20.6083 20.2314 20.6083 20.6917C20.6083 21.1519 20.9814 21.525 21.4417 21.525H28.85C29.3102 21.525 29.6833 21.1519 29.6833 20.6917C29.6833 20.2314 29.3102 19.8583 28.85 19.8583Z" fill="#3D3D63"/>
<path id="Shape_9" d="M31.35 14.25H21.4417C20.9814 14.25 20.6083 14.6231 20.6083 15.0833C20.6083 15.5436 20.9814 15.9167 21.4417 15.9167H31.35C31.8102 15.9167 32.1833 15.5436 32.1833 15.0833C32.1833 14.6231 31.8102 14.25 31.35 14.25Z" fill="#3D3D63"/>
<path id="Shape_10" d="M26.025 26.4667H21.4417C20.9814 26.4667 20.6083 26.8398 20.6083 27.3C20.6083 27.7602 20.9814 28.1333 21.4417 28.1333H26.025C26.4852 28.1333 26.8583 27.7602 26.8583 27.3C26.8583 26.8398 26.4852 26.4667 26.025 26.4667V26.4667Z" fill="#3D3D63"/>
<path id="Shape_11" d="M21.4417 25.3583H23.3917C23.8519 25.3583 24.225 24.9852 24.225 24.525C24.225 24.0647 23.8519 23.6917 23.3917 23.6917H21.4417C20.9814 23.6917 20.6083 24.0647 20.6083 24.525C20.6083 24.9852 20.9814 25.3583 21.4417 25.3583Z" fill="#3D3D63"/>
</g>
</svg>
