<svg width="52" height="52" viewBox="0 0 52 52" fill="none" xmlns="http://www.w3.org/2000/svg">
<g id="Airplane">
<path id="Shape" fill-rule="evenodd" clip-rule="evenodd" d="M47.0427 22.3253H36.348C35.4221 18.8764 32.7261 16.1837 29.276 15.262L29.0593 13.5287L31.8067 13C32.5176 12.8695 33.1268 12.4142 33.4533 11.7693C33.7648 11.1416 33.7301 10.3975 33.3615 9.80143C32.993 9.20539 32.3428 8.84186 31.642 8.84001H28.4873V8.72734C28.3388 7.4758 27.2777 6.53314 26.0173 6.53314C24.757 6.53314 23.6959 7.4758 23.5473 8.72734V8.84868H20.358C19.6572 8.85053 19.007 9.21405 18.6385 9.8101C18.2699 10.4061 18.2352 11.1502 18.5467 11.778C18.8753 12.4196 19.4841 12.8714 20.1933 13L22.9407 13.5027L22.724 15.236C19.2739 16.1577 16.5779 18.8504 15.652 22.2993H4.94867C3.85519 22.3268 2.97325 23.203 2.93873 24.2963C2.9042 25.3895 3.7291 26.3197 4.81867 26.416L6.67333 26.5287C6.45438 26.9366 6.33835 27.3917 6.33533 27.8547C6.33533 29.4534 7.63132 30.7493 9.23 30.7493C10.8287 30.7493 12.1247 29.4534 12.1247 27.8547C12.1172 27.5161 12.0497 27.1816 11.9253 26.8667L15.522 27.0833C16.4667 32.1967 20.904 36.192 26 36.192C31.096 36.192 35.5333 32.2053 36.478 27.0833L40.066 26.8667C39.9424 27.1909 39.875 27.5338 39.8667 27.8807C39.8667 29.4794 41.1627 30.7753 42.7613 30.7753C44.36 30.7753 45.656 29.4794 45.656 27.8807C45.653 27.4177 45.537 26.9626 45.318 26.5547L47.1727 26.442C48.2622 26.3457 49.0871 25.4155 49.0526 24.3223C49.0181 23.229 48.1361 22.3528 47.0427 22.3253ZM9.23 29.042C8.58976 29.0372 8.07417 28.5152 8.07735 27.8749C8.08053 27.2347 8.60128 26.7178 9.24153 26.7194C9.88179 26.721 10.4 27.2404 10.4 27.8807C10.4 28.1902 10.2765 28.4869 10.0568 28.7049C9.83712 28.923 9.5395 29.0443 9.23 29.042ZM41.6087 27.8807C41.6087 28.5221 42.1286 29.042 42.77 29.042C43.4114 29.042 43.9313 28.5221 43.9313 27.8807C43.9313 27.2393 43.4114 26.7193 42.77 26.7193C42.1286 26.7193 41.6087 27.2393 41.6087 27.8807ZM31.642 10.608C31.7425 10.6052 31.8361 10.6587 31.8847 10.7467C31.9358 10.8352 31.9358 10.9442 31.8847 11.0327C31.8038 11.1903 31.6524 11.2998 31.4773 11.3273L28.834 11.8127L28.6867 10.608H31.642ZM20.098 11.0327C20.1789 11.1903 20.3303 11.2998 20.5053 11.3273L23.1313 11.8127L23.2787 10.608H20.3407C20.2402 10.6052 20.1466 10.6587 20.098 10.7467C20.0469 10.8352 20.0469 10.9442 20.098 11.0327ZM25.246 8.96134C25.3027 8.58869 25.6231 8.31332 26 8.31332C26.3769 8.31332 26.6973 8.58869 26.754 8.96134L27.4907 14.9067C26.501 14.7795 25.499 14.7795 24.5093 14.9067L25.246 8.96134ZM4.61933 24.388C4.61908 24.5586 4.75237 24.6995 4.92267 24.7087L15.3487 25.324V24.9253V24.0587H4.94867C4.76678 24.0587 4.61933 24.2061 4.61933 24.388ZM26 34.4587C21.2333 34.4587 17.0473 30.004 17.0473 24.9253C17.0473 20.15 20.8953 16.5533 26 16.5533C31.1047 16.5533 34.9527 20.15 34.9527 24.9253C34.9527 30.004 30.7667 34.4587 26 34.4587ZM36.6773 25.3327L47.0773 24.7087C47.1639 24.711 47.2477 24.6783 47.3097 24.6179C47.3717 24.5575 47.4067 24.4746 47.4067 24.388C47.4067 24.3007 47.372 24.2169 47.3102 24.1551C47.2484 24.0934 47.1647 24.0587 47.0773 24.0587H36.6773V24.9253V25.3327Z" fill="#3D3D63"/>
<path id="Shape_2" fill-rule="evenodd" clip-rule="evenodd" d="M22.1953 20.3147H29.8047C30.4549 20.3016 31.0737 20.5934 31.4773 21.1034C32.1008 21.8661 32.5557 22.7522 32.812 23.7034C32.9824 24.3431 32.8446 25.0258 32.4393 25.5494C32.0465 26.0663 31.4332 26.3681 30.784 26.364H21.2507C20.6014 26.3681 19.9881 26.0663 19.5953 25.5494C19.1901 25.0258 19.0523 24.3431 19.2227 23.7034C19.479 22.7522 19.9339 21.8661 20.5573 21.1034C20.9535 20.6031 21.5573 20.3124 22.1953 20.3147ZM27.2047 24.648V22.048H24.8213V24.648H27.2047ZM20.9907 24.5007C20.9137 24.4026 20.8909 24.2725 20.93 24.154C21.1221 23.4362 21.4616 22.7662 21.9267 22.1867C22.0007 22.1006 22.1078 22.0502 22.2213 22.048H23.088V24.648H21.2507C21.1376 24.646 21.0319 24.5916 20.9647 24.5007H20.9907ZM30.7753 24.6394C30.8869 24.6394 30.9923 24.5883 31.0613 24.5007H31.0353C31.105 24.3985 31.1181 24.268 31.07 24.154C30.8799 23.4328 30.5404 22.7596 30.0733 22.178C29.9993 22.092 29.8921 22.0415 29.7787 22.0394H28.912V24.6394H30.7753Z" fill="#3D3D63"/>
<path id="Shape_3" d="M44.486 35.0393C41.1833 35.04 38.1193 36.7608 36.4 39.5806C35.6854 39.2516 34.9074 39.083 34.1207 39.0866C31.4269 39.0905 29.1331 41.0466 28.704 43.706H28.444C27.9654 43.706 27.5773 44.094 27.5773 44.5726C27.5773 45.0513 27.9654 45.4393 28.444 45.4393H29.4667C29.9453 45.4393 30.3333 45.0513 30.3333 44.5726C30.3373 43.1794 31.1111 41.9025 32.3442 41.2541C33.5774 40.6057 35.068 40.6921 36.218 41.4786C36.6792 41.7977 37.064 42.2151 37.3447 42.7006C37.5001 42.9699 37.7878 43.1352 38.0987 43.134C38.2513 43.1324 38.4008 43.0905 38.532 43.0126C38.9415 42.7717 39.0807 42.246 38.844 41.834C38.5678 41.3612 38.2231 40.9319 37.8213 40.56C39.219 38.21 41.7518 36.7707 44.486 36.7726C44.9646 36.7726 45.3527 36.3846 45.3527 35.906C45.3527 35.4273 44.9646 35.0393 44.486 35.0393V35.0393Z" fill="#3D3D63"/>
<path id="Shape_4" d="M24.8473 43.706H23.322C22.8968 41.048 20.6058 39.0912 17.914 39.0867C17.1273 39.0831 16.3493 39.2517 15.6347 39.5807C13.9089 36.7502 10.8291 35.0279 7.51401 35.0394C7.03536 35.0394 6.64734 35.4274 6.64734 35.906C6.64734 36.3847 7.03536 36.7727 7.51401 36.7727C10.2482 36.7708 12.781 38.2101 14.1787 40.56C13.7769 40.932 13.4322 41.3613 13.156 41.834C12.9193 42.246 13.0585 42.7718 13.468 43.0127C13.5992 43.0906 13.7487 43.1324 13.9013 43.134C14.2122 43.1353 14.4999 42.9699 14.6553 42.7007C14.936 42.2151 15.3208 41.7978 15.782 41.4787C16.8019 40.7798 18.1007 40.6282 19.2542 41.0733C20.4077 41.5184 21.2679 42.5032 21.554 43.706H21.3807C20.902 43.706 20.514 44.094 20.514 44.5727C20.514 45.0513 20.902 45.4394 21.3807 45.4394H24.8473C25.326 45.4394 25.714 45.0513 25.714 44.5727C25.714 44.094 25.326 43.706 24.8473 43.706Z" fill="#3D3D63"/>
</g>
</svg>
