<svg width="50" height="50" viewBox="0 0 50 50" fill="none" xmlns="http://www.w3.org/2000/svg">
<g id="Man">
<path id="Shape" fill-rule="evenodd" clip-rule="evenodd" d="M41.15 44.4417H43.3833V44.45C43.8436 44.45 44.2167 44.8231 44.2167 45.2833C44.2167 45.7436 43.8436 46.1167 43.3833 46.1167H6.61666C6.15642 46.1167 5.78333 45.7436 5.78333 45.2833C5.78333 44.8231 6.15642 44.45 6.61666 44.45H8.84999V43.825C8.85459 39.5711 12.3044 36.125 16.5583 36.125H17.5L17.2 35.5833C17.0511 35.3255 17.0511 35.0078 17.2 34.75L18.4 32.6667C16.3246 30.8895 15.091 28.3225 15 25.5917C13.0637 25.276 11.6255 23.6279 11.575 21.6667V20.6083C11.6113 19.2906 12.7071 18.2507 14.025 18.2833H15V17.375H13.7417C12.3516 17.2966 11.2645 16.1465 11.2645 14.7542C11.2645 13.3619 12.3516 12.2118 13.7417 12.1333H15.8333V7.80002C15.8316 6.53546 16.4417 5.34819 17.471 4.6135C18.5002 3.8788 19.8213 3.68748 21.0167 4.10002L23.7167 5.00002C24.5488 5.2832 25.4512 5.2832 26.2833 5.00002L28.9917 4.10002C30.186 3.69085 31.5045 3.88381 32.5315 4.61809C33.5585 5.35237 34.1675 6.53752 34.1667 7.80002V12.1333H36.2667C37.6568 12.2118 38.7438 13.3619 38.7438 14.7542C38.7438 16.1465 37.6568 17.2966 36.2667 17.375H35V18.2833H35.975C37.2929 18.2507 38.3886 19.2906 38.425 20.6083V21.6667C38.3745 23.6279 36.9363 25.276 35 25.5917C34.9092 28.3267 33.6722 30.8974 31.5917 32.675L32.7917 34.7583C32.9405 35.0162 32.9405 35.3338 32.7917 35.5917L32.5 36.1167H32.7667H33.4417C37.6956 36.1167 41.1454 39.5627 41.15 43.8167V44.4417ZM13.2417 21.6667C13.2828 22.7059 13.9954 23.5975 15 23.8667V19.95H14.025C13.6271 19.9163 13.2769 20.2106 13.2417 20.6083V21.6667ZM31.1 35.175L28.525 39.8917L26.2 37.575L30.3 33.8L31.1 35.175ZM36.7583 20.6083C36.723 20.2106 36.3728 19.9163 35.975 19.95H35V23.8667C36.0046 23.5975 36.7171 22.7059 36.7583 21.6667V20.6083ZM17.5 7.80002C17.4947 7.07386 17.8468 6.39152 18.4417 5.97502C19.031 5.55188 19.7886 5.4401 20.475 5.67502L23.1667 6.60002C24.3504 7.00009 25.6329 7.00009 26.8167 6.60002L29.5083 5.67502C30.1947 5.4401 30.9524 5.55188 31.5417 5.97502C32.1428 6.3878 32.5015 7.07076 32.5 7.80002V9.11668H17.5V7.80002ZM32.5 10.7833H17.5V12.1333H32.5V10.7833ZM13.7333 15.7083C13.2408 15.6623 12.8643 15.2489 12.8643 14.7542C12.8643 14.2595 13.2408 13.8461 13.7333 13.8H36.2333C36.7259 13.8461 37.1024 14.2595 37.1024 14.7542C37.1024 15.2489 36.7259 15.6623 36.2333 15.7083H13.7333ZM16.6667 17.375V25.3C16.6667 29.9024 20.3976 33.6334 25 33.6334C29.6024 33.6334 33.3333 29.9024 33.3333 25.3V17.375H16.6667ZM25 35.1167C25.5216 35.1161 26.0424 35.0771 26.5583 35L25 36.4167L23.4417 35C23.9575 35.0771 24.4784 35.1161 25 35.1167ZM21.475 39.9333L23.8 37.6167L19.7333 33.8417L18.9 35.2167L21.475 39.9333ZM22.225 44.4834H10.5167V43.8584C10.5213 40.5249 13.2249 37.825 16.5583 37.825H17.4417C17.7545 37.8223 18.0666 37.7944 18.375 37.7417L20.55 41.6667C20.6731 41.899 20.8985 42.0596 21.1583 42.1H21.2833C21.5031 42.0969 21.7128 42.007 21.8667 41.85L22.05 41.675C22.1498 42.0309 22.4721 42.2786 22.8417 42.2834L22.225 44.4834ZM24.6083 42.3333L23.9667 44.4833H26.0333L25.3917 42.3333H24.6083ZM26.4667 40.6667H23.55L23.4833 40.2917L25 38.7333L26.525 40.25L26.4667 40.6667ZM27.775 44.4833H39.4917L39.5 43.8167C39.4954 40.4832 36.7918 37.7833 33.4583 37.7833H32.7833C32.4079 37.7793 32.0337 37.7374 31.6667 37.6583L29.425 41.7167C29.3019 41.949 29.0764 42.1096 28.8167 42.15H28.6917C28.4719 42.1469 28.2622 42.057 28.1083 41.9L27.925 41.725C27.8252 42.0809 27.5029 42.3286 27.1333 42.3333L27.775 44.4833Z" fill="#3D3D63"/>
<path id="Shape_2" d="M21.7334 27.0833C21.5296 27.1711 21.3692 27.3367 21.2879 27.5432C21.2065 27.7496 21.2109 27.9801 21.3 28.1833C21.9397 29.6573 23.3932 30.6111 25 30.6111C26.6069 30.6111 28.0604 29.6573 28.7 28.1833C28.8887 27.7599 28.6985 27.2637 28.275 27.075C27.8516 26.8863 27.3554 27.0766 27.1667 27.5C26.7945 28.3659 25.9425 28.927 25 28.927C24.0575 28.927 23.2055 28.3659 22.8334 27.5C22.644 27.0818 22.1522 26.8956 21.7334 27.0833Z" fill="#3D3D63"/>
<path id="Shape_3" d="M21.3 22.1667C21.7602 22.1667 22.1333 21.7936 22.1333 21.3334V20.375C22.1333 19.9148 21.7602 19.5417 21.3 19.5417C20.8398 19.5417 20.4667 19.9148 20.4667 20.375V21.3334C20.4667 21.7936 20.8398 22.1667 21.3 22.1667Z" fill="#3D3D63"/>
<path id="Shape_4" d="M28.7 22.1667C29.1603 22.1667 29.5334 21.7936 29.5334 21.3334V20.375C29.5334 19.9148 29.1603 19.5417 28.7 19.5417C28.2398 19.5417 27.8667 19.9148 27.8667 20.375V21.3334C27.8667 21.7936 28.2398 22.1667 28.7 22.1667Z" fill="#3D3D63"/>
</g>
</svg>
