<svg width="51" height="50" viewBox="0 0 51 50" fill="none" xmlns="http://www.w3.org/2000/svg">
<g id="Briefcase">
<path id="Shape" fill-rule="evenodd" clip-rule="evenodd" d="M46.2333 40.4834H44.5C44.7279 40.0547 44.848 39.5771 44.85 39.0917V25.6667C45.2103 24.9415 45.3985 24.1431 45.4 23.3334V17.9834C45.4 16.911 44.5307 16.0417 43.4584 16.0417H37.625V15.2084C37.6204 10.7598 34.0153 7.15462 29.5667 7.15002H20.6833C16.2348 7.15462 12.6296 10.7598 12.625 15.2084V16.0417H6.79168C5.71933 16.0417 4.85002 16.911 4.85002 17.9834V23.3334C4.85026 24.1459 5.0385 24.9473 5.40002 25.675V39.0917C5.40205 39.5771 5.52217 40.0547 5.75002 40.4834H4.01668C3.55645 40.4834 3.18335 40.8565 3.18335 41.3167C3.18335 41.7769 3.55645 42.15 4.01668 42.15H20.0167L19.9167 43.5667C19.9008 43.8136 19.9954 44.0548 20.175 44.225L24.5417 48.4584C24.8657 48.776 25.3843 48.776 25.7083 48.4584L30.075 44.225C30.2546 44.0548 30.3492 43.8136 30.3333 43.5667L30.2333 42.15H46.2333C46.6936 42.15 47.0667 41.7769 47.0667 41.3167C47.0667 40.8565 46.6936 40.4834 46.2333 40.4834ZM14.2917 15.2084C14.2963 11.6802 17.1552 8.82128 20.6833 8.81669H29.5667C33.0948 8.82128 35.9538 11.6802 35.9584 15.2084V16.0417H34.2917V15.2084C34.2917 12.5988 32.1762 10.4834 29.5667 10.4834H20.6833C18.0738 10.4834 15.9584 12.5988 15.9584 15.2084V16.0417H14.2917V15.2084ZM32.625 16.0417V15.2084C32.625 14.3972 32.3028 13.6193 31.7293 13.0458C31.1557 12.4722 30.3778 12.15 29.5667 12.15H20.6833C18.9943 12.15 17.625 13.5193 17.625 15.2084V16.0417H19.225C19.32 15.7867 19.4581 15.5499 19.6334 15.3417C20.1068 14.7832 20.8012 14.4604 21.5333 14.4584H28.7167C29.4488 14.4604 30.1432 14.7832 30.6167 15.3417C30.7919 15.5499 30.93 15.7867 31.025 16.0417H32.625ZM8.45835 40.4834C8.08926 40.4834 7.73528 40.3367 7.47429 40.0757C7.2133 39.8148 7.06668 39.4608 7.06668 39.0917V27.6167C7.95833 28.256 9.02787 28.5999 10.125 28.6H10.9583V29.65C10.8993 30.7792 11.4682 31.8489 12.4375 32.4312C13.4068 33.0135 14.6183 33.0135 15.5875 32.4312C16.5568 31.8489 17.1257 30.7792 17.0667 29.65V28.6H20.9583L20.125 40.4834H8.45835ZM12.625 27.15V29.65C12.5846 30.1714 12.8398 30.6714 13.2858 30.9445C13.7318 31.2176 14.2932 31.2176 14.7392 30.9445C15.1852 30.6714 15.4405 30.1714 15.4 29.65V27.15H12.625ZM21.0417 26.9334H17.0667V26.875C17.0689 26.5067 16.9241 26.1527 16.6645 25.8915C16.4048 25.6302 16.0517 25.4834 15.6833 25.4834H12.35C11.5814 25.4834 10.9583 26.1064 10.9583 26.875V26.9334H10.125C8.13544 26.9334 6.52128 25.3229 6.51668 23.3334V17.9834C6.51668 17.8315 6.6398 17.7084 6.79168 17.7084H19.125L19.7083 21.1667C19.8399 21.9928 20.4899 22.6395 21.3167 22.7667L21.0417 26.9334ZM21.7917 40.5584L21.6083 43.3334L22.275 43.925L28.4583 40.35L28.2083 36.8584L21.7917 40.5584ZM27.4917 26.1667L27.725 29.6584L22.3167 32.7834L22.5667 29L27.4917 26.1667ZM22.9917 22.8334L22.7083 27L27.3667 24.35L27.2584 22.8334H22.9917ZM27.85 31.5084L28.0833 35.0084L21.925 38.5584L22.1833 34.7834L27.85 31.5084ZM23.5 45.1L25.125 46.6667L28.6417 43.2584L28.5667 42.175L23.5 45.1ZM28.625 21.0917H21.625C21.488 21.0933 21.3708 20.9938 21.35 20.8584L20.7167 17.0584C20.6758 16.8174 20.7429 16.5706 20.9 16.3834C21.0584 16.1982 21.2898 16.0917 21.5333 16.0917H28.7167C28.9603 16.0917 29.1917 16.1982 29.35 16.3834C29.5072 16.5706 29.5742 16.8174 29.5333 17.0584L28.9 20.8584C28.8955 21.007 28.7737 21.1251 28.625 21.125V21.0917ZM30.5417 21.1667C30.4069 21.9896 29.7576 22.6322 28.9333 22.7584L29.2083 26.9334H33.1833V26.875C33.1811 26.5067 33.3259 26.1527 33.5856 25.8915C33.8452 25.6302 34.1984 25.4834 34.5667 25.4834H37.9C38.6686 25.4834 39.2917 26.1064 39.2917 26.875V26.9334H40.125C42.1146 26.9334 43.7288 25.3229 43.7333 23.3334V17.9834C43.7333 17.8315 43.6102 17.7084 43.4584 17.7084H31.125L30.5417 21.1667ZM37.625 27.15V29.65C37.6655 30.1714 37.4102 30.6714 36.9642 30.9445C36.5182 31.2176 35.9568 31.2176 35.5108 30.9445C35.0648 30.6714 34.8096 30.1714 34.85 29.65V27.15H37.625ZM29.2917 28.6L30.125 40.4834H41.7917C42.5472 40.4653 43.1502 39.8475 43.15 39.0917V27.6167C42.2584 28.256 41.1888 28.5999 40.0917 28.6H39.2584V29.65C39.3174 30.7792 38.7485 31.8489 37.7792 32.4312C36.8099 33.0135 35.5984 33.0135 34.6292 32.4312C33.6599 31.8489 33.091 30.7792 33.15 29.65V28.6H29.2917Z" fill="#3D3D63"/>
</g>
</svg>
