<svg width="17" height="17" viewBox="0 0 17 17" fill="none" xmlns="http://www.w3.org/2000/svg">
<mask id="mask0" mask-type="alpha" maskUnits="userSpaceOnUse" x="0" y="0" width="17" height="17">
<path fill-rule="evenodd" clip-rule="evenodd" d="M0 0H17V17H0V0Z" fill="white"/>
</mask>
<g mask="url(#mask0)">
<path fill-rule="evenodd" clip-rule="evenodd" d="M16.19 0.810293C15.1096 -0.270098 13.3535 -0.270098 12.2731 0.810293L1.17769 11.9054C1.17192 11.9115 1.16885 11.9177 1.16423 11.9234C1.15846 11.9311 1.15231 11.9384 1.14615 11.9461C1.13 11.97 1.11769 11.9942 1.10885 12.0196C1.10577 12.0288 1.10115 12.0346 1.09962 12.0438C1.09808 12.0469 1.09692 12.0496 1.09538 12.0527L0.00769231 16.6215C0.00307692 16.6427 0.00153846 16.6635 0.00153846 16.6831C0.00153846 16.6877 0 16.6923 0 16.695C0 16.7312 0.00769231 16.7642 0.0196154 16.7973C0.0226923 16.805 0.0253846 16.8123 0.0284615 16.82C0.0434615 16.8531 0.0630769 16.8846 0.09 16.91C0.118846 16.94 0.153077 16.9627 0.190769 16.9777C0.228462 16.9927 0.267308 17 0.306538 17C0.330385 17 0.354615 16.9988 0.378462 16.9927L4.94731 15.905C4.95654 15.9035 4.96231 15.8988 4.97154 15.8958C4.98192 15.8931 4.99115 15.8885 5.00154 15.8838C5.02385 15.8735 5.04346 15.8611 5.06308 15.8461C5.07077 15.8404 5.07808 15.8358 5.08577 15.8296C5.08846 15.8269 5.09154 15.8254 5.09308 15.8223L16.19 4.72685C17.27 3.64685 17.27 1.88876 16.19 0.810293ZM15.7558 1.24453C16.5204 2.01068 16.5865 3.21415 15.9554 4.05685L12.9431 1.04453C13.7877 0.413368 14.9896 0.479522 15.7558 1.24453ZM14.2323 5.81455L11.1854 2.768L11.6212 2.33376L14.6665 5.37916L14.2323 5.81455ZM1.52654 15.4738C1.40615 15.3535 1.21231 15.3535 1.09077 15.4738L0.857692 15.7065L1.64346 12.4057L3.00462 12.2542L2.83038 13.83C2.82885 13.8419 2.83346 13.8527 2.83346 13.8646C2.83346 13.8765 2.82885 13.8873 2.83038 13.8977C2.83038 13.9081 2.83654 13.9173 2.83808 13.9261C2.84269 13.9442 2.84692 13.9608 2.85462 13.9773C2.86192 13.9969 2.87115 14.015 2.88308 14.0331C2.89231 14.0481 2.90269 14.06 2.91308 14.0719C2.92808 14.0884 2.94462 14.1004 2.96269 14.1142C2.97615 14.1231 2.98962 14.1319 3.00462 14.1396C3.02423 14.1484 3.04692 14.1546 3.06808 14.1592C3.08 14.1623 3.08885 14.1681 3.10077 14.1696C3.11308 14.1711 3.12346 14.1727 3.13538 14.1727H3.13692C3.14769 14.1727 3.15808 14.1711 3.17 14.1696L4.74615 13.9954L4.59423 15.3565L1.29346 16.1423L1.52654 15.9092C1.64654 15.7892 1.64654 15.5938 1.52654 15.4738ZM5.38769 13.7881L12.2731 6.90264C12.3935 6.78225 12.3935 6.58686 12.2731 6.46686C12.1531 6.34648 11.9592 6.34648 11.8388 6.46686L4.95346 13.3523L3.48423 13.5161L3.64769 12.0469L10.5335 5.16109C10.6535 5.04109 10.6535 4.84724 10.5335 4.72685C10.4131 4.60685 10.2192 4.60685 10.0992 4.72685L3.21231 11.6127L2.23269 11.7207L10.7512 3.20338L13.7965 6.24879L5.27962 14.7677L5.38769 13.7881ZM15.1023 4.94493L12.0554 1.89799L12.4912 1.46222L15.5377 4.50916L15.1023 4.94493Z" fill="black"/>
</g>
</svg>
